<svg width="28" height="28" viewBox="0 0 28 28" fill="none" xmlns="http://www.w3.org/2000/svg">
<path d="M8.73636 16.1473C8.8567 16.3793 9.82465 17.906 11.5029 18.6654C15.0554 20.2728 19.7954 18.1967 20.0151 13.9482C20.0152 13.9458 20.0154 13.9439 20.0155 13.9413C20.016 13.9307 20.0165 13.9221 20.0169 13.9125C20.0165 13.9219 20.0159 13.9311 20.0155 13.9404C20.1321 11.633 19.2904 9.7522 18.3695 7.70306C17.3091 5.34194 17.0252 2.92815 17.4149 0.400335C16.3466 0.139414 15.2305 0 14.0816 0C12.9343 0 11.8196 0.139023 10.7525 0.399293C11.0139 2.02329 11.0474 3.69724 10.6555 5.303C10.2675 6.89393 9.44952 8.31112 8.83964 9.81719C8.27638 11.2091 8.02809 12.6987 8.16647 14.197C8.22755 14.8674 8.42667 15.5504 8.73636 16.1473Z" fill="#2E2E2E"/>
<path d="M20.1205 1.40563C20.0872 1.67919 20.0625 1.95417 20.0503 2.23189C19.9684 4.0586 20.5347 5.62158 21.2797 7.26089C22.0787 9.01649 22.7598 10.1752 23.0171 12.793C23.2628 15.2932 22.1805 17.8233 20.4238 19.551C18.5383 21.406 15.8022 22.2141 13.1984 22.004C10.7713 21.8079 8.41693 20.7222 6.89666 18.7861C5.30398 16.7569 4.87806 14.064 5.26407 11.5592C5.55377 9.681 6.39103 8.02522 7.15602 6.30869C7.8415 4.77149 8.07461 3.17771 7.89444 1.50793C7.89066 1.47342 7.88552 1.43917 7.88122 1.40479C3.21538 3.67552 0 8.46176 0 14C0 21.7327 6.26744 28 14 28C21.7327 28 28 21.7327 28 14C28 8.46235 24.7854 3.67669 20.1205 1.40563Z" fill="#2E2E2E"/>
</svg>
