<svg width="38" height="38" viewBox="0 0 38 38" fill="none" xmlns="http://www.w3.org/2000/svg">
<path d="M36.8125 31.4688V26.125H35.625V28.5H33.8438V14.8438C33.8438 14.6863 33.7812 14.5353 33.6698 14.4239C33.5585 14.3126 33.4075 14.25 33.25 14.25H26.125C25.9675 14.25 25.8165 14.3126 25.7052 14.4239C25.5938 14.5353 25.5312 14.6863 25.5312 14.8438V28.5H22.5625V29.6875H35.625V30.875H22.5625V32.0625H36.2188C36.3762 32.0625 36.5272 31.9999 36.6386 31.8886C36.7499 31.7772 36.8125 31.6262 36.8125 31.4688ZM32.6562 28.5H26.7188V15.4375H32.6562V28.5ZM5.9375 20.1875H4.75V17.8125H5.9375V20.1875ZM23.1562 24.9375V15.4375H19.5938V14.25H23.75C23.9075 14.25 24.0585 14.3126 24.1698 14.4239C24.2812 14.5353 24.3438 14.6863 24.3438 14.8438V25.5312C24.3438 25.6887 24.2812 25.8397 24.1698 25.9511C24.0585 26.0624 23.9075 26.125 23.75 26.125H22.5625V24.9375H23.1562ZM35.0135 1.63727C34.9814 1.5088 34.9073 1.39476 34.8029 1.31326C34.6985 1.23177 34.5699 1.1875 34.4375 1.1875H4.75C4.61758 1.1875 4.48897 1.23177 4.3846 1.31326C4.28023 1.39476 4.2061 1.5088 4.17399 1.63727C4.17399 1.63727 2.39341 8.75952 2.39274 8.76227C2.38147 8.80766 2.37552 8.85421 2.375 8.90098C2.375 8.90276 2.375 21.375 2.375 21.375H3.5625V12.4671C4.07564 12.8541 4.70103 13.0632 5.34375 13.0625V11.875C4.8715 11.8745 4.41874 11.6866 4.0848 11.3527C3.75087 11.0188 3.56303 10.566 3.5625 10.0938V9.5H5.9375V8.3125H3.7292L5.21357 2.375H8.20533L7.42997 7.0274L8.60128 7.2226L9.40923 2.375H12.4172L12.0257 7.07572L13.2091 7.17428L13.6088 2.375H16.625V6.53125H17.8125V2.375H21.375V8.3125H19V9.5H21.375V10.0938C21.3749 10.4063 21.2926 10.7134 21.1363 10.9841C20.9799 11.2548 20.7552 11.4797 20.4845 11.636C20.2138 11.7924 19.9068 11.8748 19.5942 11.875C19.2816 11.8752 18.9744 11.7931 18.7036 11.6371L18.1089 12.6649C18.7378 13.028 19.4779 13.1479 20.1892 13.0019C20.9006 12.856 21.5337 12.4543 21.9688 11.8729C22.2449 12.2422 22.6033 12.542 23.0156 12.7485C23.4279 12.955 23.8826 13.0625 24.3438 13.0625C24.8049 13.0625 25.2596 12.955 25.6719 12.7485C26.0842 12.542 26.4426 12.2422 26.7188 11.8729C26.9949 12.2422 27.3533 12.542 27.7656 12.7485C28.1779 12.955 28.6326 13.0625 29.0938 13.0625C29.5549 13.0625 30.0096 12.955 30.4219 12.7485C30.8342 12.542 31.1926 12.2422 31.4688 11.8729C31.7023 12.1853 31.9951 12.4486 32.3306 12.6476C32.666 12.8466 33.0374 12.9775 33.4235 13.0327C33.8097 13.0879 34.2029 13.0663 34.5806 12.9693C34.9584 12.8722 35.3133 12.7016 35.625 12.4671V24.9375H36.8125C36.8125 24.9375 36.8125 8.90284 36.8125 8.90105C36.8121 8.85427 36.8063 8.80769 36.7951 8.76227L35.0135 1.63727ZM22.5625 2.375H25.5787L26.0735 8.3125H22.5625V2.375ZM26.125 10.0938C26.125 10.5662 25.9373 11.0192 25.6033 11.3533C25.2692 11.6873 24.8162 11.875 24.3438 11.875C23.8713 11.875 23.4183 11.6873 23.0842 11.3533C22.7502 11.0192 22.5625 10.5662 22.5625 10.0938V9.5H26.125V10.0938ZM26.7703 2.375H29.7783L30.7678 8.3125H27.2651L26.7703 2.375ZM30.875 10.0938C30.875 10.5662 30.6873 11.0192 30.3533 11.3533C30.0192 11.6873 29.5662 11.875 29.0938 11.875C28.6213 11.875 28.1683 11.6873 27.8342 11.3533C27.5002 11.0192 27.3125 10.5662 27.3125 10.0938V9.5H30.875V10.0938ZM31.4769 5.34375L30.9822 2.375H33.9739L35.4583 8.3125H31.9717L31.4769 5.34375ZM35.625 10.0938C35.625 10.5662 35.4373 11.0192 35.1033 11.3533C34.7692 11.6873 34.3162 11.875 33.8438 11.875C33.3713 11.875 32.9183 11.6873 32.5842 11.3533C32.2502 11.0192 32.0625 10.5662 32.0625 10.0938V9.5H35.625V10.0938ZM31.4688 23.75H30.2812V20.1875H31.4688V23.75ZM3.61 24.4619L2.44625 24.2256C2.39883 24.4599 2.37496 24.6984 2.375 24.9375V33.8438C2.37588 34.6308 2.68895 35.3854 3.2455 35.942C3.80206 36.4986 4.55666 36.8116 5.34375 36.8125H18.4062C19.1933 36.8116 19.9479 36.4986 20.5045 35.942C21.0611 35.3854 21.3741 34.6308 21.375 33.8438V24.9375C21.3739 23.993 20.9982 23.0875 20.3304 22.4196C19.6625 21.7518 18.757 21.3761 17.8125 21.375H14.8438V21.0688C15.4897 20.6351 16.0336 20.0661 16.4378 19.4013C16.842 18.7365 17.0969 17.9918 17.1848 17.2188H17.2188C17.6912 17.2188 18.1442 17.0311 18.4783 16.697C18.8123 16.363 19 15.9099 19 15.4375C19 14.9651 18.8123 14.512 18.4783 14.178C18.1442 13.8439 17.6912 13.6562 17.2188 13.6562C17.2188 13.6562 17.2157 11.7389 17.2113 11.671C17.5989 11.2371 17.8129 10.6755 17.8125 10.0938V8.3125C17.8125 8.15503 17.7499 8.004 17.6386 7.89266C17.5272 7.78131 17.3762 7.71875 17.2188 7.71875H9.5C8.71291 7.71963 7.95831 8.0327 7.40175 8.58925C6.8452 9.14581 6.53213 9.90041 6.53125 10.6875V13.6562C6.05883 13.6562 5.60577 13.8439 5.27172 14.178C4.93767 14.512 4.75 14.9651 4.75 15.4375C4.75 15.9099 4.93767 16.363 5.27172 16.697C5.60577 17.0311 6.05883 17.2188 6.53125 17.2188H6.56524C6.65313 17.9918 6.908 18.7365 7.31222 19.4013C7.71644 20.0661 8.26034 20.6351 8.90625 21.0688V21.375H5.9375C5.38411 21.3728 4.83794 21.5005 4.34293 21.7479C3.84792 21.9953 3.41791 22.3555 3.0875 22.7994L4.0375 23.5125C4.25778 23.2165 4.54445 22.9764 4.87444 22.8114C5.20444 22.6464 5.56855 22.5611 5.9375 22.5625H8.90625V24.9375C8.90625 25.0277 8.92682 25.1168 8.96638 25.1979C9.00595 25.2789 9.06348 25.35 9.1346 25.4055C9.20571 25.461 9.28855 25.4996 9.37682 25.5183C9.46508 25.537 9.55645 25.5354 9.64398 25.5135L11.2812 25.1042V29.8077L7.71875 29.1881V25.5312H6.53125V26.7188H3.5625V24.9375C3.56243 24.7778 3.57834 24.6185 3.61 24.4619ZM17.2188 14.8438C17.3762 14.8438 17.5272 14.9063 17.6386 15.0177C17.7499 15.129 17.8125 15.28 17.8125 15.4375C17.8125 15.595 17.7499 15.746 17.6386 15.8573C17.5272 15.9687 17.3762 16.0312 17.2188 16.0312V14.8438ZM6.53125 16.0312C6.37378 16.0312 6.22276 15.9687 6.11141 15.8573C6.00006 15.746 5.9375 15.595 5.9375 15.4375C5.9375 15.28 6.00006 15.129 6.11141 15.0177C6.22276 14.9063 6.37378 14.8438 6.53125 14.8438V16.0312ZM18.4062 35.625H17.2877L14.4674 34.9614L16.6939 34.4375H20.0857C19.9626 34.7846 19.7351 35.085 19.4344 35.2977C19.1337 35.5103 18.7745 35.6246 18.4062 35.625ZM20.1875 29.0938H17.2188V27.9062H20.1875V29.0938ZM17.8125 22.5625C18.4422 22.5632 19.0459 22.8137 19.4911 23.2589C19.9363 23.7041 20.1868 24.3078 20.1875 24.9375V26.7188H17.2188V25.5312H16.0312V29.1881L12.4688 29.8077V25.1042L14.106 25.5135C14.1936 25.5354 14.2849 25.537 14.3732 25.5183C14.4614 25.4996 14.5443 25.461 14.6154 25.4055C14.6865 25.35 14.744 25.2789 14.7836 25.1979C14.8232 25.1168 14.8437 25.0277 14.8438 24.9375V22.5625H17.8125ZM13.0364 24.0221L13.6562 23.4021V24.1771L13.0364 24.0221ZM16.0312 12.7002L15.8685 12.4288C15.9233 12.4187 15.9777 12.4074 16.0312 12.3936V12.7002ZM7.71875 11.875V10.6875C7.71928 10.2152 7.90712 9.76249 8.24105 9.42855C8.57499 9.09462 9.02775 8.90678 9.5 8.90625H16.625V10.0938C16.6246 10.4086 16.4994 10.7104 16.2768 10.933C16.0542 11.1556 15.7523 11.2809 15.4375 11.2812H8.90625C8.80372 11.2812 8.70293 11.3078 8.61371 11.3583C8.52448 11.4088 8.44986 11.4816 8.39711 11.5695L7.71875 12.7002V11.875ZM7.71875 16.625V15.0082L9.24239 12.4688H14.5076L16.0312 15.0082V16.625C16.0312 17.1708 15.9237 17.7113 15.7149 18.2155C15.506 18.7198 15.1999 19.178 14.8139 19.5639C14.428 19.9499 13.9698 20.256 13.4655 20.4649C12.9613 20.6737 12.4208 20.7812 11.875 20.7812C11.3292 20.7812 10.7887 20.6737 10.2845 20.4649C9.78021 20.256 9.32203 19.9499 8.93609 19.5639C8.55014 19.178 8.244 18.7198 8.03513 18.2155C7.82625 17.7113 7.71875 17.1708 7.71875 16.625ZM10.0938 24.1771V23.4021L10.7136 24.0221L10.0938 24.1771ZM10.0938 21.7229V21.6635C11.2464 22.0705 12.5036 22.0705 13.6562 21.6635V21.7229L11.875 23.5041L10.0938 21.7229ZM16.6762 30.2812H20.1875V33.25H16.625C16.5792 33.25 16.5335 33.2553 16.489 33.2658L6.46237 35.625H5.34375C4.8715 35.6245 4.41874 35.4366 4.0848 35.1027C3.75087 34.7688 3.56303 34.316 3.5625 33.8438V32.5619L16.6762 30.2812ZM7.07371 30.2812L8.40965 30.5136L3.5625 31.3566V30.2812H7.07371ZM6.53125 27.9062V29.0938H3.5625V27.9062H6.53125ZM10.0938 26.7188V27.9062H8.90625V26.7188H10.0938ZM11.875 18.9476C11.1235 18.9473 10.389 18.7242 9.76437 18.3065L10.4231 17.3185C10.8528 17.606 11.3581 17.7595 11.875 17.7595C12.3919 17.7595 12.8972 17.606 13.3269 17.3185L13.9856 18.3065C13.361 18.7242 12.6265 18.9473 11.875 18.9476ZM9.79688 16.0312C9.62073 16.0312 9.44853 15.979 9.30207 15.8812C9.15561 15.7833 9.04145 15.6442 8.97404 15.4815C8.90664 15.3187 8.889 15.1396 8.92336 14.9669C8.95773 14.7941 9.04255 14.6354 9.16711 14.5109C9.29166 14.3863 9.45036 14.3015 9.62312 14.2671C9.79589 14.2327 9.97496 14.2504 10.1377 14.3178C10.3004 14.3852 10.4395 14.4994 10.5374 14.6458C10.6353 14.7923 10.6875 14.9645 10.6875 15.1406C10.6872 15.3768 10.5933 15.6031 10.4264 15.7701C10.2594 15.9371 10.033 16.031 9.79688 16.0312ZM13.0625 15.1406C13.0625 14.9645 13.1147 14.7923 13.2126 14.6458C13.3105 14.4994 13.4496 14.3852 13.6123 14.3178C13.775 14.2504 13.9541 14.2327 14.1269 14.2671C14.2996 14.3015 14.4583 14.3863 14.5829 14.5109C14.7074 14.6354 14.7923 14.7941 14.8266 14.9669C14.861 15.1396 14.8434 15.3187 14.776 15.4815C14.7085 15.6442 14.5944 15.7833 14.4479 15.8812C14.3015 15.979 14.1293 16.0312 13.9531 16.0312C13.717 16.031 13.4906 15.9371 13.3236 15.7701C13.1567 15.6031 13.0628 15.3768 13.0625 15.1406Z" fill="black"/>
</svg>
