<svg width="39" height="30" viewBox="0 0 39 30" fill="none" xmlns="http://www.w3.org/2000/svg">
<path d="M37.9451 12.28C37.6251 11.48 36.7451 11.04 35.9051 11.36L35.6651 11.44C34.2251 11.96 32.7851 12.4 31.2651 12.68L29.1851 5.04C28.3851 2.08 25.6651 0 22.5851 0H15.4651C12.3851 0 9.70513 2.08 8.86513 5.04L6.78513 12.68C5.30513 12.4 3.82513 12 2.38513 11.44L2.14513 11.36C1.34513 11.04 0.425135 11.48 0.105135 12.28C-0.214865 13.08 0.225135 14 1.02513 14.32L1.26513 14.4C4.58513 15.64 8.06513 16.28 11.5851 16.28H26.4251C29.9451 16.28 33.4251 15.64 36.7451 14.4L36.9851 14.32C37.8651 14 38.2651 13.08 37.9451 12.28ZM11.6251 13.12C11.0651 13.12 10.5051 13.08 9.94514 13.04L11.9051 5.84C12.3451 4.24 13.7851 3.12 15.4651 3.12H22.6651C24.3051 3.12 25.7851 4.24 26.2251 5.84L28.1851 13.04C27.6251 13.08 27.0651 13.12 26.5051 13.12H11.6251Z" fill="black"/>
<path d="M25.9451 18.1599C23.6651 18.1599 21.7451 19.5599 20.9051 21.5599C19.6651 21.2799 18.4251 21.2799 17.1851 21.5599C16.3851 19.5599 14.4251 18.1599 12.1451 18.1599C9.14508 18.1599 6.70508 20.5999 6.70508 23.5999C6.70508 26.5999 9.14508 29.0399 12.1451 29.0399C14.7451 29.0399 16.9451 27.1999 17.4651 24.7199C18.5051 24.3999 19.5851 24.3999 20.5851 24.7199C21.1051 27.1599 23.3051 29.0399 25.9051 29.0399C28.9051 29.0399 31.3451 26.5999 31.3451 23.5999C31.3851 20.5999 28.9451 18.1599 25.9451 18.1599ZM12.1851 25.9199C10.9051 25.9199 9.90508 24.8799 9.90508 23.6399C9.90508 22.3599 10.9451 21.3599 12.1851 21.3599C13.4651 21.3599 14.4651 22.3999 14.4651 23.6399C14.4651 24.8799 13.4651 25.9199 12.1851 25.9199ZM25.9451 25.9199C24.6651 25.9199 23.6651 24.8799 23.6651 23.6399C23.6651 22.3599 24.7051 21.3599 25.9451 21.3599C27.2251 21.3599 28.2251 22.3999 28.2251 23.6399C28.2251 24.8799 27.2251 25.9199 25.9451 25.9199Z" fill="black"/>
</svg>
