<svg width="27" height="32" viewBox="0 0 27 32" fill="none" xmlns="http://www.w3.org/2000/svg">
<path d="M1 19.96C0.734783 19.96 0.480429 20.0654 0.292893 20.2529C0.105357 20.4404 0 20.6948 0 20.96C0 21.2252 0.105357 21.4796 0.292893 21.6671C0.480429 21.8546 0.734783 21.96 1 21.96H12.87C13.2356 21.9626 13.5853 22.1097 13.8429 22.3692C14.1005 22.6286 14.245 22.9794 14.245 23.345C14.2457 23.5306 14.2083 23.7144 14.135 23.885V23.93C14.0242 24.1663 13.8492 24.3667 13.6299 24.5081C13.4106 24.6496 13.1559 24.7265 12.895 24.73H7.105C6.83978 24.73 6.58543 24.8354 6.39789 25.0229C6.21036 25.2104 6.105 25.4648 6.105 25.73C6.105 25.9952 6.21036 26.2496 6.39789 26.4371C6.58543 26.6246 6.83978 26.73 7.105 26.73H12.86C13.4658 26.7288 14.0602 26.5649 14.5809 26.2552C15.1017 25.9456 15.5296 25.5017 15.82 24.97L22.375 18.755C22.564 18.5982 22.7996 18.5086 23.045 18.5C23.354 18.5 23.6503 18.6227 23.8688 18.8412C24.0873 19.0597 24.21 19.356 24.21 19.665C24.2124 19.8283 24.18 19.9902 24.115 20.14C24.065 20.22 23.97 20.35 23.92 20.42L14.815 30H1.605C1.33978 30 1.08543 30.1054 0.897893 30.2929C0.710357 30.4804 0.605 30.7348 0.605 31C0.605 31.2652 0.710357 31.5196 0.897893 31.7071C1.08543 31.8946 1.33978 32 1.605 32H15.255C15.3909 31.9995 15.5253 31.9713 15.6499 31.9172C15.7746 31.863 15.8869 31.784 15.98 31.685L25.405 21.75C25.4298 21.7229 25.4532 21.6945 25.475 21.665C25.6381 21.4568 25.7821 21.2342 25.905 21C26.1263 20.5182 26.2234 19.9887 26.1874 19.4598C26.1515 18.9308 25.9837 18.4193 25.6993 17.9719C25.415 17.5244 25.0231 17.1553 24.5594 16.8982C24.0958 16.6411 23.5751 16.5042 23.045 16.5C22.3364 16.5091 21.6521 16.7595 21.105 17.21L21.04 17.27L20.595 17.69V12.88H22.05C22.2464 12.8802 22.4385 12.8225 22.6024 12.7142C22.7663 12.6059 22.8946 12.4518 22.9714 12.271C23.0482 12.0902 23.07 11.8908 23.0342 11.6977C22.9984 11.5045 22.9065 11.3262 22.77 11.185L20.15 8.5V2.13C20.15 1.86478 20.0446 1.61043 19.8571 1.42289C19.6696 1.23536 19.4152 1.13 19.15 1.13H15.075C14.8098 1.13 14.5554 1.23536 14.3679 1.42289C14.1804 1.61043 14.075 1.86478 14.075 2.13V2.21L12.24 0.31C12.147 0.212498 12.0354 0.134779 11.9116 0.0815088C11.7879 0.0282383 11.6547 0.000514079 11.52 0C11.3861 0.00118427 11.2539 0.029233 11.1311 0.0824833C11.0082 0.135734 10.8974 0.213101 10.805 0.31L0.305 11.185C0.168914 11.3263 0.0773934 11.5045 0.0418315 11.6974C0.00626956 11.8903 0.0282374 12.0895 0.105 12.27C0.181554 12.4507 0.30961 12.605 0.473207 12.7134C0.636805 12.8219 0.828708 12.8798 1.025 12.88H2.455V19.96H1Z" fill="black"/>
</svg>
